<?xml version="1.0" encoding="UTF-8" standalone="no"?>
<!-- Created with Inkscape (http://www.inkscape.org/) -->

<svg
   xmlns:dc="http://purl.org/dc/elements/1.1/"
   xmlns:cc="http://creativecommons.org/ns#"
   xmlns:rdf="http://www.w3.org/1999/02/22-rdf-syntax-ns#"
   xmlns:svg="http://www.w3.org/2000/svg"
   xmlns="http://www.w3.org/2000/svg"
   xmlns:sodipodi="http://sodipodi.sourceforge.net/DTD/sodipodi-0.dtd"
   xmlns:inkscape="http://www.inkscape.org/namespaces/inkscape"
   width="84.278069mm"
   height="81.581001mm"
   viewBox="0 0 84.278074 81.580992"
   version="1.1"
   id="svg4679"
   inkscape:version="0.92.1 r15371"
   sodipodi:docname="logo.svg">
  <defs
     id="defs4673" />
  <sodipodi:namedview
     id="base"
     pagecolor="#927b7b"
     bordercolor="#666666"
     borderopacity="1.0"
     inkscape:pageopacity="0"
     inkscape:pageshadow="2"
     inkscape:zoom="1.979899"
     inkscape:cx="241.27137"
     inkscape:cy="106.64897"
     inkscape:document-units="mm"
     inkscape:current-layer="layer1"
     showgrid="false"
     fit-margin-top="0"
     fit-margin-left="0"
     fit-margin-right="0"
     fit-margin-bottom="0"
     inkscape:window-width="1920"
     inkscape:window-height="1147"
     inkscape:window-x="1912"
     inkscape:window-y="-8"
     inkscape:window-maximized="1" />
  <metadata
     id="metadata4676">
    <rdf:RDF>
      <cc:Work
         rdf:about="">
        <dc:format>image/svg+xml</dc:format>
        <dc:type
           rdf:resource="http://purl.org/dc/dcmitype/StillImage" />
        <dc:title></dc:title>
      </cc:Work>
    </rdf:RDF>
  </metadata>
  <g
     inkscape:label="Layer 1"
     inkscape:groupmode="layer"
     id="layer1"
     transform="translate(-101.43816,77.306556)">
    <path
       inkscape:connector-curvature="0"
       style="color:#000000;display:inline;overflow:visible;visibility:visible;fill:none;fill-opacity:1;fill-rule:nonzero;stroke:#ffffff;stroke-width:4;stroke-linecap:square;stroke-linejoin:round;stroke-miterlimit:4;stroke-dasharray:none;stroke-dashoffset:1.20000052;stroke-opacity:1;marker:none"
       d="m 108.64474,-75.306552 h 29.26341 c 2.88445,0 5.20659,2.32214 5.20659,5.20659 v 16.034251 c 0,2.88445 -2.32214,5.206589 -5.20659,5.206589 h -29.26341 c -2.88445,0 -5.20657,-2.322139 -5.20657,-5.206589 v -16.034251 c 0,-2.88445 2.32212,-5.20659 5.20657,-5.20659 z"
       id="rect4589"
       inkscape:export-xdpi="33.8522"
       inkscape:export-ydpi="33.8522"
       sodipodi:nodetypes="sssssssss" />
    <path
       style="fill:#ffffff;fill-opacity:1;stroke-width:0.26458332"
       inkscape:connector-curvature="0"
       d="m 336.42765,-52.594382 -25.08249,-43.074169 v -31.644159 h 0.10583 c 0.21167,0 0.3175,0 0.52917,-0.10584 2.75166,-0.84666 4.65666,-3.28083 4.65666,-6.13833 v -4.23333 c 0,-3.4925 -2.8575,-6.35 -6.35,-6.35 h -17.99166 c -3.4925,0 -6.35,2.8575 -6.35,6.35 v 4.23333 c 0,3.175 2.32834,5.715 5.29167,6.24417 v 31.644159 l -24.97667,43.074169 c -2.43417,3.280831 -2.75167,7.514158 -0.9525,11.112498 1.79916,3.59833 5.3975,5.82083 9.41916,5.82083 h 53.23417 c 4.02166,0 7.62,-2.2225 9.41916,-5.82083 1.79917,-3.59834 1.48167,-7.831667 -0.9525,-11.112498 z m -41.38082,-41.063341 c 0.3175,-0.3175 0.42333,-0.846659 0.42333,-1.27 v -32.279157 h 2.64583 c 1.16417,0 2.11667,-0.9525 2.11667,-2.11667 0,-1.16416 -0.9525,-2.11666 -2.11667,-2.11666 h -5.82083 c -1.16416,0 -2.11666,-0.9525 -2.11666,-2.11667 v -4.23333 c 0,-1.16417 0.9525,-2.11667 2.11666,-2.11667 h 17.99166 c 1.16417,0 2.11667,0.9525 2.11667,2.11667 v 4.23333 c 0,1.05833 -0.74083,1.79917 -1.48167,2.01083 l -1.79916,0.10584 c -1.16417,0.10583 -2.01084,0.9525 -2.01084,2.11666 v 34.395827 c 0,0.423341 0.10584,0.846672 0.42334,1.27 l 15.875,26.670011 c -2.01084,-0.3175 -4.1275,-0.740839 -6.13834,-1.375839 l -11.85333,-3.598331 c -8.89,-2.64583 -14.07583,-2.54 -22.75416,0.423331 h -0.10583 z m 38.52332,50.270839 c -1.05833,2.2225 -3.175,3.4925 -5.60916,3.4925 h -53.23417 c -2.43416,0 -4.55083,-1.27 -5.60916,-3.4925 -1.16417,-2.2225 -0.9525,-4.7625 0.52916,-6.667498 l 8.36084,-15.34583 5.92667,-2.010839 c 7.9375,-2.645831 12.17083,-2.8575 20.21416,-0.423331 l 11.85333,3.598331 c 3.59834,1.058339 7.3025,1.693339 10.795,1.799169 l 6.24417,12.27667 c 1.48166,2.116658 1.69333,4.550828 0.52916,6.773328 z"
       id="path4599"
       sodipodi:nodetypes="cccscssssssccccsscccscssssssssssccssccccccccssccccccccc"
       inkscape:export-xdpi="33.8522"
       inkscape:export-ydpi="33.8522" />
    <path
       inkscape:connector-curvature="0"
       id="rect4617"
       d="m 108.64475,-36.57022 h 29.26341 c 2.88445,0 5.20659,2.322142 5.20659,5.20659 v 16.034251 c 0,2.884453 -2.32214,5.206596 -5.20659,5.206596 h -29.26341 c -2.88445,0 -5.20659,-2.322143 -5.20659,-5.206596 V -31.36363 c 0,-2.884448 2.32214,-5.20659 5.20659,-5.20659 z"
       style="color:#000000;display:inline;overflow:visible;visibility:visible;fill:none;fill-opacity:1;fill-rule:nonzero;stroke:#ffffff;stroke-width:4;stroke-linecap:square;stroke-linejoin:round;stroke-miterlimit:4;stroke-dasharray:none;stroke-dashoffset:1.20000052;stroke-opacity:1;marker:none"
       inkscape:export-xdpi="33.8522"
       inkscape:export-ydpi="33.8522"
       sodipodi:nodetypes="sssssssss" />
    <path
       inkscape:export-ydpi="33.8522"
       inkscape:export-xdpi="33.8522"
       style="fill:#ffffff;fill-opacity:1;stroke-width:0.26458332"
       inkscape:connector-curvature="0"
       d="m -82.636614,-215.92277 h 19.57918 c 4.43744,0 7.9375,4.18983 7.9375,7.9375 v 2.11666 h -4.23334 v -2.11666 c 0,-1.96598 -1.27047,-3.70417 -3.70416,-3.70417 h -19.57918"
       id="path4492"
       sodipodi:nodetypes="cssccssc" />
    <path
       sodipodi:nodetypes="ccccc"
       inkscape:connector-curvature="0"
       id="path4494"
       d="m -120.5294,-166.51142 -0.10547,8.34375 4.23203,0.0332 0.10547,-8.34375 z"
       style="color:#000000;font-style:normal;font-variant:normal;font-weight:normal;font-stretch:normal;font-size:medium;line-height:normal;font-family:sans-serif;font-variant-ligatures:normal;font-variant-position:normal;font-variant-caps:normal;font-variant-numeric:normal;font-variant-alternates:normal;font-feature-settings:normal;text-indent:0;text-align:start;text-decoration:none;text-decoration-line:none;text-decoration-style:solid;text-decoration-color:#000000;letter-spacing:normal;word-spacing:normal;text-transform:none;writing-mode:lr-tb;direction:ltr;text-orientation:mixed;dominant-baseline:auto;baseline-shift:baseline;text-anchor:start;white-space:normal;shape-padding:0;clip-rule:nonzero;display:inline;overflow:visible;visibility:visible;opacity:1;isolation:auto;mix-blend-mode:normal;color-interpolation:sRGB;color-interpolation-filters:linearRGB;solid-color:#000000;solid-opacity:1;vector-effect:none;fill:#ffffff;fill-opacity:1;fill-rule:nonzero;stroke:none;stroke-width:2.64474225px;stroke-linecap:butt;stroke-linejoin:miter;stroke-miterlimit:4;stroke-dasharray:none;stroke-dashoffset:0;stroke-opacity:1;color-rendering:auto;image-rendering:auto;shape-rendering:auto;text-rendering:auto;enable-background:accumulate" />
    <path
       inkscape:export-ydpi="33.8522"
       inkscape:export-xdpi="33.8522"
       id="path4496"
       d="m -104.27371,-226.85912 h 16.034236 c 2.88445,0 5.20659,2.32214 5.20659,5.20659 v 16.03425 c 0,2.88445 -2.32214,5.20659 -5.20659,5.20659 h -16.034236 c -2.88445,0 -5.20658,-2.32214 -5.20658,-5.20659 v -16.03425 c 0,-2.88445 2.32213,-5.20659 5.20658,-5.20659 z"
       style="color:#000000;display:inline;overflow:visible;visibility:visible;fill:none;fill-opacity:1;fill-rule:nonzero;stroke:#ffffff;stroke-width:4;stroke-linecap:square;stroke-linejoin:round;stroke-miterlimit:4;stroke-dasharray:none;stroke-dashoffset:1.20000052;stroke-opacity:1;marker:none"
       inkscape:connector-curvature="0" />
    <path
       inkscape:export-ydpi="33.8522"
       inkscape:export-xdpi="33.8522"
       sodipodi:nodetypes="cccscssssssccccsscccscssssssssssccssccccccccssccccccccc"
       id="path4498"
       d="m -20.346814,-131.94983 -25.08249,-43.07417 v -15.76916 h 0.10583 c 0.21167,0 0.3175,0 0.52917,-0.10584 2.75166,-0.84666 4.65666,-3.28083 4.65666,-6.13833 v -4.23333 c 0,-3.4925 -2.8575,-6.35 -6.35,-6.35 h -23.28333 c -3.4925,0 -6.35,2.8575 -6.35,6.35 v 4.23333 c 0,3.175 2.32834,5.715 5.29167,6.24417 v 15.76916 l -24.97667,43.07417 c -2.43417,3.28083 -2.75167,7.51416 -0.9525,11.1125 1.79916,3.59833 5.3975,5.82083 9.41916,5.82083 h 58.52584 c 4.02166,0 7.62,-2.2225 9.41916,-5.82083 1.79917,-3.59834 1.48167,-7.83167 -0.9525,-11.1125 z m -46.67249,-41.06334 c 0.3175,-0.3175 0.42333,-0.84666 0.42333,-1.27 v -16.40416 h 2.64583 c 1.16417,0 2.11667,-0.9525 2.11667,-2.11667 0,-1.16416 -0.9525,-2.11666 -2.11667,-2.11666 h -5.82083 c -1.16416,0 -2.11666,-0.9525 -2.11666,-2.11667 v -4.23333 c 0,-1.16417 0.9525,-2.11667 2.11666,-2.11667 h 23.28333 c 1.16417,0 2.11667,0.9525 2.11667,2.11667 v 4.23333 c 0,1.05833 -0.74083,1.79917 -1.48167,2.01083 l -1.79916,0.10584 c -1.16417,0.10583 -2.01084,0.9525 -2.01084,2.11666 v 18.52083 c 0,0.42334 0.10584,0.84667 0.42334,1.27 l 15.875,26.67001 c -2.01084,-0.3175 -4.1275,-0.74084 -6.13834,-1.37584 l -11.85333,-3.59833 c -8.89,-2.64583 -19.3675,-2.54 -28.04583,0.42333 h -0.10583 z m 43.81499,50.27084 c -1.05833,2.2225 -3.175,3.4925 -5.60916,3.4925 h -58.52584 c -2.43416,0 -4.55083,-1.27 -5.60916,-3.4925 -1.16417,-2.2225 -0.9525,-4.7625 0.52916,-6.6675 l 8.36084,-15.34583 5.92667,-2.01084 c 7.9375,-2.64583 17.4625,-2.8575 25.50583,-0.42333 l 11.85333,3.59833 c 3.59834,1.05834 7.3025,1.69334 10.795,1.79917 l 6.24417,12.27667 c 1.48166,2.11666 1.69333,4.55083 0.52916,6.77333 z"
       inkscape:connector-curvature="0"
       style="fill:#ffffff;fill-opacity:1;stroke-width:0.26458332" />
    <path
       inkscape:export-ydpi="33.8522"
       inkscape:export-xdpi="33.8522"
       id="path4500"
       d="m -57.070974,-190.68733 h 3.175 c 1.16417,0 2.11667,-0.9525 2.11667,-2.11667 0,-1.16417 -0.9525,-2.11667 -2.11667,-2.11667 h -3.175 c -1.16416,0 -2.11667,0.9525 -2.11667,2.11667 0,1.16417 0.95251,2.11667 2.11667,2.11667 z"
       inkscape:connector-curvature="0"
       style="fill:#ffffff;fill-opacity:1;stroke-width:0.26458332" />
    <path
       inkscape:export-ydpi="33.8522"
       inkscape:export-xdpi="33.8522"
       id="path4502"
       d="m -126.49871,-193.20345 h 16.03424 c 2.88445,0 5.20659,2.32214 5.20659,5.20659 v 16.03425 c 0,2.88445 -2.32214,5.20659 -5.20659,5.20659 h -16.03424 c -2.88445,0 -5.20659,-2.32214 -5.20659,-5.20659 v -16.03425 c 0,-2.88445 2.32214,-5.20659 5.20659,-5.20659 z"
       style="color:#000000;display:inline;overflow:visible;visibility:visible;fill:none;fill-opacity:1;fill-rule:nonzero;stroke:#ffffff;stroke-width:4;stroke-linecap:square;stroke-linejoin:round;stroke-miterlimit:4;stroke-dasharray:none;stroke-dashoffset:1.20000052;stroke-opacity:1;marker:none"
       inkscape:connector-curvature="0" />
    <path
       inkscape:export-ydpi="33.8522"
       inkscape:export-xdpi="33.8522"
       style="color:#000000;display:inline;overflow:visible;visibility:visible;fill:none;fill-opacity:1;fill-rule:nonzero;stroke:#888a85;stroke-width:2.64474273;stroke-linecap:square;stroke-linejoin:round;stroke-miterlimit:4;stroke-dasharray:none;stroke-dashoffset:1.20000052;stroke-opacity:1;marker:none"
       d="m -126.49871,-158.48945 h 16.03424 c 2.88445,0 5.20659,2.32214 5.20659,5.20659 v 16.03425 c 0,2.88445 -2.32214,5.20659 -5.20659,5.20659 h -16.03424 c -2.88445,0 -5.20659,-2.32214 -5.20659,-5.20659 v -16.03425 c 0,-2.88445 2.32214,-5.20659 5.20659,-5.20659 z"
       id="path4504"
       inkscape:connector-curvature="0" />
    <path
       inkscape:export-ydpi="33.8522"
       inkscape:export-xdpi="33.8522"
       style="color:#000000;display:inline;overflow:visible;visibility:visible;fill:none;fill-opacity:1;fill-rule:nonzero;stroke:#ffffff;stroke-width:4;stroke-linecap:square;stroke-linejoin:round;stroke-miterlimit:4;stroke-dasharray:none;stroke-dashoffset:1.20000052;stroke-opacity:1;marker:none"
       d="m -126.49871,-158.48945 h 16.03424 c 2.88445,0 5.20659,2.32214 5.20659,5.20659 v 16.03425 c 0,2.88445 -2.32214,5.20659 -5.20659,5.20659 h -16.03424 c -2.88445,0 -5.20659,-2.32214 -5.20659,-5.20659 v -16.03425 c 0,-2.88445 2.32214,-5.20659 5.20659,-5.20659 z"
       id="path4506"
       inkscape:connector-curvature="0" />
    <path
       sodipodi:nodetypes="cssccssc"
       id="path4508"
       d="m -120.54925,-193.24582 v -14.81668 c 0,-4.43744 4.18982,-7.9375 7.9375,-7.9375 h 2.11666 v 4.23334 h -2.11666 c -1.96598,0 -3.70417,1.27047 -3.70417,3.70416 v 14.81668"
       inkscape:connector-curvature="0"
       style="fill:#ffffff;fill-opacity:1;stroke-width:0.26458332"
       inkscape:export-xdpi="33.8522"
       inkscape:export-ydpi="33.8522" />
    <path
       inkscape:export-ydpi="33.8522"
       inkscape:export-xdpi="33.8522"
       style="fill:#ffffff;fill-opacity:1;stroke-width:0.26458332"
       inkscape:connector-curvature="0"
       d="m -95.678374,-121.27916 h -16.933346 c -4.43744,0 -7.9375,-4.18982 -7.9375,-7.9375 v -2.11666 h 4.23334 v 2.11666 c 0,1.96598 1.27047,3.70417 3.70416,3.70417 h 16.933346"
       id="path4510"
       sodipodi:nodetypes="cssccssc" />
    <path
       style="fill:none;stroke:#fff9f9;stroke-width:4;stroke-linecap:butt;stroke-linejoin:miter;stroke-miterlimit:4;stroke-dasharray:none;stroke-opacity:1"
       d="m 123.27646,-37.746011 v -9.937323"
       id="path4512"
       inkscape:connector-curvature="0"
       sodipodi:nodetypes="cc" />
    <path
       inkscape:connector-curvature="0"
       id="path4526"
       d="m 143.54126,-62.082841 h 16.28732"
       style="fill:none;stroke:#ffffff;stroke-width:4;stroke-linecap:butt;stroke-linejoin:miter;stroke-miterlimit:4;stroke-dasharray:none;stroke-opacity:1"
       sodipodi:nodetypes="cc" />
    <g
       id="g4558"
       transform="matrix(0.26458333,0,0,0.26458333,208.25332,11.790156)" />
    <g
       id="g4560"
       transform="matrix(0.26458333,0,0,0.26458333,208.25332,11.790156)" />
    <g
       id="g4562"
       transform="matrix(0.26458333,0,0,0.26458333,208.25332,11.790156)" />
    <g
       id="g4564"
       transform="matrix(0.26458333,0,0,0.26458333,208.25332,11.790156)" />
    <g
       id="g4566"
       transform="matrix(0.26458333,0,0,0.26458333,208.25332,11.790156)" />
    <g
       id="g4568"
       transform="matrix(0.26458333,0,0,0.26458333,208.25332,11.790156)" />
    <g
       id="g4570"
       transform="matrix(0.26458333,0,0,0.26458333,208.25332,11.790156)" />
    <g
       id="g4572"
       transform="matrix(0.26458333,0,0,0.26458333,208.25332,11.790156)" />
    <g
       id="g4574"
       transform="matrix(0.26458333,0,0,0.26458333,208.25332,11.790156)" />
    <g
       id="g4576"
       transform="matrix(0.26458333,0,0,0.26458333,208.25332,11.790156)" />
    <g
       id="g4578"
       transform="matrix(0.26458333,0,0,0.26458333,208.25332,11.790156)" />
    <g
       id="g4580"
       transform="matrix(0.26458333,0,0,0.26458333,208.25332,11.790156)" />
    <g
       id="g4582"
       transform="matrix(0.26458333,0,0,0.26458333,208.25332,11.790156)" />
    <g
       id="g4584"
       transform="matrix(0.26458333,0,0,0.26458333,208.25332,11.790156)" />
    <g
       id="g4586"
       transform="matrix(0.26458333,0,0,0.26458333,208.25332,11.790156)" />
    <g
       id="g4726"
       transform="matrix(0.26458333,0,0,0.29789737,237.85974,9.358183)"
       style="fill:#ffffff;fill-opacity:1">
      <path
         id="path4655"
         d="M -301.00234,-65.370705 V -274.38527 c -4.11416,-0.16236 -7.41852,-3.53085 -7.38646,-7.71017 0.0321,-3.596 2.49457,-7.54781 7.74275,-7.74275 h 95.82546 c 4.27652,0 7.71017,3.43365 7.74274,7.74275 0,4.21138 -3.27179,7.54831 -7.38645,7.71017 l 5e-4,209.015066 c 0.93908,26.466955 -23.94033,49.726766 -48.23694,48.236946 -26.62882,-5.03e-4 -48.23645,-21.608134 -48.3016,-48.237447 z m 81.02097,-209.047125 -65.53598,0.0321 v 116.73136 l 65.53598,-30.00919 z m -32.75196,241.831653 c 15.87387,0.518659 32.39516,-12.504854 32.75196,-32.75195 V -165.89311 l -65.56805,30.04127 v 70.448567 c 0.0321,18.109333 14.73983,32.817089 32.81609,32.817096 z"
         style="fill:#ffffff;fill-opacity:1;stroke-width:0.70868534"
         inkscape:connector-curvature="0"
         sodipodi:nodetypes="ccccscccccccccccccccc" />
      <g
         id="g4665"
         style="fill:#ffffff;fill-opacity:1" />
      <g
         id="g4667"
         style="fill:#ffffff;fill-opacity:1" />
      <g
         id="g4669"
         style="fill:#ffffff;fill-opacity:1" />
      <g
         id="g4671"
         style="fill:#ffffff;fill-opacity:1" />
      <g
         id="g4673"
         style="fill:#ffffff;fill-opacity:1" />
      <g
         id="g4675"
         style="fill:#ffffff;fill-opacity:1" />
      <g
         id="g4677"
         style="fill:#ffffff;fill-opacity:1" />
      <g
         id="g4679"
         style="fill:#ffffff;fill-opacity:1" />
      <g
         id="g4681"
         style="fill:#ffffff;fill-opacity:1" />
      <g
         id="g4683"
         style="fill:#ffffff;fill-opacity:1" />
      <g
         id="g4685"
         style="fill:#ffffff;fill-opacity:1" />
      <g
         id="g4687"
         style="fill:#ffffff;fill-opacity:1" />
      <g
         id="g4689"
         style="fill:#ffffff;fill-opacity:1" />
      <g
         id="g4691"
         style="fill:#ffffff;fill-opacity:1" />
      <g
         id="g4693"
         style="fill:#ffffff;fill-opacity:1" />
    </g>
    <path
       sodipodi:nodetypes="cc"
       style="fill:none;stroke:#ffffff;stroke-width:4;stroke-linecap:butt;stroke-linejoin:miter;stroke-miterlimit:4;stroke-dasharray:none;stroke-opacity:1"
       d="m 143.54126,-23.346502 h 16.28732"
       id="path4730"
       inkscape:connector-curvature="0" />
  </g>
</svg>
